<?xml version="1.0" standalone="no"?>
<!DOCTYPE svg PUBLIC "-//W3C//DTD SVG 20010904//EN"
 "http://www.w3.org/TR/2001/REC-SVG-20010904/DTD/svg10.dtd">
<svg version="1.0" xmlns="http://www.w3.org/2000/svg"
 width="920.000000pt" height="445.000000pt" viewBox="0 0 920.000000 445.000000"
 preserveAspectRatio="xMidYMid meet">

<g transform="translate(0.000000,445.000000) scale(0.100000,-0.100000)"
fill="#000000" stroke="none">
<path d="M4337 4238 c-1043 -44 -2017 -410 -2560 -962 -239 -243 -383 -498
-443 -785 -32 -154 -34 -366 -4 -510 62 -304 201 -553 453 -810 513 -524 1406
-876 2412 -951 184 -14 633 -14 810 -1 794 62 1505 286 2035 642 155 105 235
170 363 297 235 231 384 481 455 759 25 100 27 123 27 308 0 187 -2 207 -28
310 -88 341 -302 652 -630 916 -679 547 -1739 836 -2890 787z m593 -134 c772
-47 1507 -270 2019 -612 535 -357 811 -788 811 -1267 0 -563 -394 -1076 -1105
-1437 -845 -429 -1954 -561 -3025 -362 -784 146 -1489 505 -1855 944 -225 271
-335 551 -335 855 0 203 43 373 141 566 326 632 1194 1117 2284 1273 159 23
392 43 530 45 66 1 122 4 125 7 5 6 241 -1 410 -12z"/>
<path d="M4350 3980 c-1251 -61 -2319 -568 -2665 -1265 -162 -327 -162 -653 0
-980 393 -792 1701 -1323 3119 -1265 880 36 1659 276 2196 676 115 86 301 265
373 359 430 562 325 1216 -273 1717 -619 518 -1678 810 -2750 758z m2550 -980
c0 -7 -168 -10 -484 -10 -474 0 -487 -1 -637 -26 -84 -14 -161 -23 -171 -21
-10 3 -57 -10 -105 -28 -47 -19 -135 -48 -195 -65 -60 -17 -153 -47 -206 -67
-145 -54 -197 -64 -238 -47 -19 8 -34 21 -34 29 0 7 -9 20 -21 28 -18 13 -3
19 188 65 304 74 512 115 718 141 101 12 1185 14 1185 1z m-3087 -45 c194 -56
389 -189 391 -267 1 -29 5 -33 43 -43 23 -5 51 -19 62 -29 26 -23 28 -12 4 17
-11 13 -32 23 -53 25 -36 4 -58 17 -47 28 18 19 240 76 312 81 44 3 83 10 86
15 3 5 41 12 83 15 84 5 126 -10 126 -46 0 -12 9 -20 29 -24 29 -6 91 -52 91
-68 0 -5 -33 -9 -72 -10 l-73 0 39 -15 c22 -8 42 -17 45 -20 3 -4 -45 -4 -107
-1 l-113 5 -82 -50 c-45 -27 -93 -60 -107 -73 -33 -31 -90 -45 -90 -22 0 13
-7 12 -36 -8 -20 -14 -45 -25 -55 -25 -9 0 -26 -3 -36 -6 -10 -3 1 11 25 31
23 20 42 41 42 45 0 12 -78 33 -96 26 -7 -3 -16 -1 -19 4 -10 16 -28 11 -21
-5 7 -19 -35 -41 -60 -31 -14 6 -11 10 16 25 19 10 36 23 38 29 5 15 -148 169
-173 173 -16 4 -25 18 -40 66 -1 3 -269 61 -355 77 -41 8 -100 22 -130 32 -49
15 -119 18 -630 24 -316 3 -584 9 -595 14 -11 4 -32 12 -47 18 -16 6 -28 13
-28 17 0 3 348 5 773 4 l772 -2 88 -26z m2677 -25 c0 -5 -15 -17 -32 -27 -39
-20 -125 -22 -181 -4 -52 17 -77 19 -362 20 -165 1 -245 5 -235 11 20 13 810
13 810 0z m-845 -12 c32 -14 33 -51 3 -72 -28 -20 -48 -20 -107 -1 -25 8 -59
17 -76 21 -28 6 -26 7 40 34 78 32 102 35 140 18z m-2675 -5 l275 -6 22 -34
c12 -18 19 -33 15 -33 -4 -1 -43 -3 -87 -6 -44 -2 -132 -10 -195 -16 -174 -17
-320 -11 -455 19 -72 16 -125 38 -125 51 0 35 48 37 550 25z m486 -18 c34 -8
73 -19 87 -26 26 -12 43 -37 32 -47 -3 -3 -65 0 -138 7 -115 11 -134 15 -149
34 -31 39 -23 47 45 47 34 0 89 -7 123 -15z m2651 5 c111 0 131 -2 127 -14
-15 -38 -108 -44 -322 -21 -207 23 -222 25 -222 37 0 8 42 9 143 5 78 -4 201
-7 274 -7z m-219 -47 c136 -14 162 -20 160 -33 -5 -24 -88 -24 -240 1 -102 17
-135 26 -131 36 7 17 17 17 211 -4z m-2111 -28 c92 -20 169 -38 172 -41 10
-10 -273 8 -308 20 -39 13 -75 56 -47 56 8 0 91 -16 183 -35z m1695 24 c88
-18 90 -44 5 -60 -35 -6 -59 -3 -118 16 -41 13 -67 26 -59 29 75 27 104 29
172 15z m324 -41 c68 -12 124 -25 124 -29 0 -17 -33 -39 -58 -39 -15 0 -92 17
-172 37 -158 41 -156 37 -31 51 7 1 69 -8 137 -20z m-2486 -2 c-22 -22 -315
-61 -346 -47 -42 19 -29 39 29 45 80 9 133 12 237 14 82 2 92 0 80 -12z m200
-1 c129 -15 169 -23 188 -38 33 -26 9 -30 -151 -23 -129 5 -171 10 -199 25
-34 17 -35 19 -20 35 19 19 32 19 182 1z m1815 -4 c61 -20 70 -34 38 -58 -28
-21 -94 -14 -152 16 l-55 28 45 16 c57 20 54 20 124 -2z m363 -38 c87 -23 100
-29 89 -41 -29 -29 -88 -26 -197 11 l-105 35 35 15 c19 9 44 14 55 11 11 -2
66 -16 123 -31z m-1740 -4 c12 -5 22 -14 22 -20 0 -8 -31 -9 -112 -4 -110 7
-148 16 -148 35 0 11 204 1 238 -11z m1242 -6 c50 -21 60 -30 58 -47 -3 -18
-10 -21 -53 -21 -33 -1 -57 5 -70 16 -11 10 -36 24 -55 31 l-35 15 45 15 c25
9 46 17 47 17 1 1 29 -11 63 -26z m468 -71 c5 -17 -41 -32 -99 -32 -46 0 -199
53 -199 69 0 3 9 12 20 19 11 7 20 19 20 26 0 11 31 4 127 -28 70 -23 129 -48
131 -54z m-2318 78 c8 -5 12 -11 10 -13 -10 -10 -263 -67 -295 -67 -34 0 -60
20 -53 42 3 8 46 19 114 29 128 19 203 22 224 9z m127 -41 c-33 -19 -155 -57
-234 -73 -77 -16 -133 -12 -140 10 -5 16 243 73 322 73 53 0 66 -2 52 -10z
m118 -9 c10 -11 16 -22 14 -23 -18 -15 -272 -98 -312 -103 -51 -6 -107 7 -107
24 0 5 47 20 105 35 59 14 134 39 168 56 74 35 108 38 132 11z m175 11 c0 -13
-64 -41 -93 -41 -14 0 -39 11 -54 25 l-28 24 88 1 c48 0 87 -4 87 -9z m1339
-20 c36 -25 36 -38 2 -55 -40 -21 -68 -20 -98 4 -14 11 -31 20 -38 20 -6 0
-20 9 -30 20 -14 16 -15 20 -4 24 8 2 21 7 29 10 27 9 114 -5 139 -23z m-1236
0 c4 -16 -5 -24 -43 -40 -57 -24 -83 -26 -99 -8 -8 11 -3 20 26 40 47 33 108
37 116 8z m166 3 c32 -23 12 -34 -59 -34 -54 0 -100 19 -100 41 0 16 133 11
159 -7z m1378 -26 c54 -23 100 -43 103 -46 15 -11 -40 -32 -86 -32 -47 0 -60
5 -107 41 -41 30 -54 45 -50 60 8 28 30 24 140 -23z m-1741 -17 c-2 -3 -47
-28 -98 -54 -76 -39 -105 -49 -149 -50 -41 -2 -54 1 -54 13 0 19 238 108 277
102 15 -2 26 -7 24 -11z m254 0 l24 -7 -24 -17 c-25 -17 -75 -22 -104 -11 -13
5 -9 10 16 24 36 19 51 21 88 11z m1365 -16 c97 -56 98 -125 2 -125 -29 0 -37
5 -47 30 -7 16 -33 50 -57 75 l-46 45 53 0 c38 0 65 -7 95 -25z m-1546 -15
c24 0 -1 -21 -59 -50 -122 -62 -170 -23 -52 42 59 32 69 35 83 22 8 -8 21 -14
28 -14z m351 15 c11 -13 5 -15 -43 -15 -36 0 -59 5 -67 15 -11 13 -5 15 43 15
36 0 59 -5 67 -15z m904 -6 c14 -11 26 -25 26 -30 0 -16 -74 -9 -110 11 l-35
19 38 1 c20 0 37 5 37 10 0 16 15 12 44 -11z m199 -44 c28 -31 57 -97 57 -133
0 -26 -5 -34 -26 -43 -15 -5 -28 -8 -29 -7 -1 2 -10 29 -19 60 -9 31 -32 78
-52 103 -19 26 -34 48 -32 50 36 28 52 23 101 -30z m-1215 33 c12 -16 -2 -58
-20 -58 -8 0 -24 7 -37 16 l-24 17 24 18 c28 22 43 24 57 7z m-139 -24 c12
-11 -76 -84 -107 -90 -68 -13 -68 34 0 78 33 21 50 26 73 22 17 -4 32 -8 34
-10z m224 7 l29 -6 -25 -23 c-21 -20 -29 -22 -46 -13 -26 14 -28 52 -3 50 9
-1 30 -4 45 -8z m1029 -18 c33 -35 78 -129 78 -164 0 -20 -6 -28 -22 -31 -44
-8 -55 1 -67 56 -6 29 -21 69 -32 90 -20 38 -18 76 5 76 7 0 24 -12 38 -27z
m-1192 -8 c13 -14 22 -26 19 -28 -61 -46 -169 -93 -169 -74 0 7 113 124 121
126 3 0 16 -10 29 -24z m242 8 c25 -22 23 -38 -7 -51 -61 -28 -88 -4 -47 41
30 32 30 32 54 10z m557 -59 c31 -77 33 -119 6 -119 -15 0 -30 20 -59 74 l-39
75 23 18 c13 10 28 17 34 15 6 -2 22 -30 35 -63z m75 43 c9 -12 22 -53 31 -91
17 -71 13 -85 -22 -86 -16 0 -43 28 -43 46 0 13 -24 86 -45 137 -12 28 60 24
79 -6z m116 8 c0 -19 -49 -20 -74 -2 -17 12 -14 14 28 15 35 2 46 -1 46 -13z
m71 -62 c17 -38 33 -82 36 -100 5 -28 2 -33 -21 -39 -15 -3 -30 -4 -33 -1 -3
4 -20 41 -37 84 l-31 78 20 21 c11 12 24 22 28 23 4 1 22 -29 38 -66z m75 15
c33 -65 39 -153 11 -153 -13 0 -24 18 -41 65 -12 36 -30 79 -39 97 -22 42 -22
43 13 43 26 0 33 -7 56 -52z m-1023 18 c16 -12 11 -18 -57 -60 -56 -35 -83
-46 -114 -46 -53 0 -60 13 -17 33 19 9 54 29 77 44 37 24 69 39 88 42 3 0 13
-6 23 -13z m828 4 c5 0 13 -10 18 -22 5 -13 21 -49 35 -80 25 -57 25 -58 5
-68 -37 -20 -63 9 -77 84 -7 36 -15 73 -19 82 -5 14 -3 16 11 11 10 -4 22 -7
27 -7z m-213 -66 c18 -37 31 -69 28 -72 -3 -3 -20 -1 -38 4 -25 7 -34 17 -38
40 -4 16 -11 38 -17 49 -9 15 -8 22 5 32 10 7 19 13 22 13 3 0 20 -30 38 -66z
m-570 30 c-4 -21 -111 -87 -134 -82 -12 2 4 18 52 50 76 51 87 56 82 32z m497
-24 c8 -16 15 -39 15 -51 0 -17 -4 -20 -22 -15 -13 4 -38 9 -55 13 -18 3 -33
9 -33 13 0 8 67 70 75 70 3 0 11 -13 20 -30z m-260 11 c3 -5 -11 -22 -31 -37
-33 -26 -38 -27 -62 -13 -34 19 -37 33 -10 47 29 13 95 15 103 3z m-189 -13
c11 -18 -66 -79 -95 -76 -39 5 -34 21 17 55 52 35 67 39 78 21z m69 -33 l25
-26 -35 -14 c-35 -15 -105 -21 -105 -9 0 8 72 73 82 74 4 0 19 -11 33 -25z
m277 -29 c29 -45 -14 -123 -93 -168 -33 -18 -39 -27 -39 -55 0 -29 3 -33 25
-33 38 0 95 -27 95 -44 0 -24 -49 -20 -71 7 -10 12 -18 17 -19 10 0 -6 5 -15
10 -18 17 -10 11 -25 -9 -25 -10 0 -26 12 -36 26 -19 30 -33 26 -14 -5 15 -23
13 -27 -22 -36 -24 -6 -28 -3 -39 31 -8 23 -10 63 -7 107 6 66 5 68 -12 53 -9
-9 -32 -19 -51 -22 -33 -7 -33 -7 -27 24 l6 30 -42 -24 c-68 -38 -107 -31 -98
20 1 5 -17 6 -39 2 l-41 -6 6 34 7 34 -84 -5 -83 -5 50 36 c34 25 56 35 70 30
11 -3 32 -5 47 -5 15 1 29 -3 33 -9 3 -5 18 -10 32 -10 14 0 43 -5 64 -11 32
-10 46 -9 82 5 23 9 63 16 87 16 25 1 58 7 75 14 37 16 128 17 137 2z m90 -18
c20 -7 29 -19 34 -43 8 -45 -1 -70 -43 -116 l-35 -39 36 0 c43 0 91 -22 105
-49 17 -32 -28 -36 -59 -6 -15 14 -33 25 -41 25 -7 -1 -2 -8 14 -16 15 -8 27
-19 27 -24 0 -18 -45 -11 -57 9 -12 19 -63 35 -63 20 0 -5 8 -9 18 -9 19 0 42
-18 42 -32 0 -4 -16 -8 -35 -8 -25 0 -35 4 -35 16 0 16 -56 44 -90 44 -15 0
-20 6 -19 28 0 21 10 34 46 57 60 38 86 74 89 122 1 21 2 39 3 40 1 3 23 -4
63 -19z m-703 -67 c0 -3 -20 -23 -43 -43 -31 -28 -48 -36 -65 -31 -22 6 -21 7
15 44 26 27 45 37 65 37 16 -1 29 -4 28 -7z m81 -16 c0 -36 -47 -75 -92 -75
-20 0 -39 4 -42 9 -9 14 84 91 110 91 19 0 24 -5 24 -25z m70 -50 c0 -18 -7
-28 -26 -35 -32 -13 -84 -13 -84 -1 0 18 60 53 103 60 4 0 7 -10 7 -24z m124
-20 c-37 -28 -83 -45 -121 -45 -34 1 -36 2 -20 14 10 8 37 17 60 20 23 4 53
13 67 21 31 17 41 10 14 -10z m-405 -4 c10 -7 -1 -19 -45 -47 -32 -22 -63 -44
-69 -51 -16 -18 -144 -72 -150 -63 -6 10 27 35 150 112 101 63 95 61 114 49z
m511 -16 c0 -16 -18 -42 -56 -79 -60 -58 -103 -82 -130 -72 -15 6 -14 10 7 32
25 27 167 144 175 144 2 0 4 -11 4 -25z m-412 -22 c-40 -29 -121 -70 -166 -82
-58 -17 -37 20 39 69 61 40 75 45 115 42 l45 -4 -33 -25z m326 3 c-15 -11 -51
-42 -79 -68 -45 -43 -85 -61 -85 -40 0 9 58 65 113 109 26 20 46 29 59 25 20
-5 19 -6 -8 -26z m-250 -51 c-47 -43 -66 -54 -105 -59 -47 -6 -79 -1 -79 15 0
4 34 30 75 56 66 43 79 48 121 44 l47 -3 -59 -53z m99 -17 c-42 -43 -52 -48
-90 -48 -24 0 -43 3 -43 6 0 3 21 25 47 48 40 37 53 43 90 42 l42 -1 -46 -47z
m-1467 -328 c25 -44 47 -80 49 -80 1 0 24 36 51 80 l49 80 52 0 53 0 0 -230 0
-230 -51 0 -50 0 3 150 c2 83 1 150 -2 150 -3 0 -27 -41 -53 -91 -27 -50 -51
-88 -55 -84 -4 3 -28 43 -54 88 l-48 82 0 -147 0 -148 -45 0 -45 0 0 230 0
230 50 0 49 0 47 -80z m680 65 c210 -62 236 -352 41 -452 -125 -64 -275 -14
-333 112 -63 134 7 296 146 340 59 18 86 18 146 0z m599 -27 l-1 -43 -62 -3
-62 -3 -1 -52 c-1 -29 -1 -112 0 -184 l2 -133 -50 0 -51 0 0 185 0 185 -70 0
-70 0 0 45 0 45 183 0 183 0 -1 -42z m401 14 c87 -45 136 -125 135 -224 0
-111 -70 -202 -176 -233 -67 -20 -120 -13 -188 23 -190 102 -156 387 54 451
48 14 129 6 175 -17z m861 13 c27 -8 57 -23 67 -33 16 -18 15 -20 -22 -45 -34
-22 -46 -25 -99 -20 -101 9 -163 -43 -163 -137 0 -79 60 -140 138 -140 55 0
89 18 130 69 l33 41 -76 0 -75 0 0 35 0 35 95 0 95 0 0 -93 c0 -92 0 -93 -32
-124 -53 -50 -96 -67 -168 -67 -98 0 -178 51 -226 144 -26 51 -24 153 4 207
60 116 175 165 299 128z m362 -161 c0 -119 4 -180 11 -190 32 -38 138 -23 159
22 7 15 11 86 11 184 l0 160 45 0 45 0 0 -208 c0 -234 1 -230 -75 -251 -51
-14 -188 -14 -237 -1 -21 6 -42 19 -48 30 -6 11 -10 105 -10 224 l0 206 50 0
50 0 -1 -176z m1411 -54 l0 -230 -45 0 -45 0 0 230 0 230 45 0 45 0 0 -230z
m-700 166 c0 -53 -3 -59 -95 -188 l-94 -133 104 -3 105 -3 0 -34 0 -35 -170 0
-170 0 0 50 c0 50 2 53 110 183 l110 132 -110 3 -110 3 0 39 0 40 160 0 160 0
0 -54z m460 1 c0 -50 -4 -58 -95 -187 l-96 -135 106 -3 105 -3 0 -34 0 -35
-170 0 -170 0 0 53 c0 52 1 53 109 182 l109 130 -109 3 -109 3 0 39 0 40 160
0 160 0 0 -53z"/>
<path d="M4717 2720 c3 -11 6 -20 7 -20 1 0 9 9 19 20 16 19 16 20 -7 20 -19
0 -23 -4 -19 -20z"/>
<path d="M3033 1805 c-96 -58 -110 -189 -27 -267 98 -92 249 -47 285 85 19 71
-22 156 -92 192 -44 23 -117 19 -166 -10z"/>
<path d="M4020 1819 c-63 -26 -102 -88 -102 -160 1 -93 63 -159 157 -167 45
-4 62 0 99 22 106 62 114 216 14 287 -36 26 -126 36 -168 18z"/>
</g>
</svg>
